<?xml version="1.0" standalone="no"?>
<!DOCTYPE svg PUBLIC "-//W3C//DTD SVG 20010904//EN"
 "http://www.w3.org/TR/2001/REC-SVG-20010904/DTD/svg10.dtd">
<svg version="1.0" xmlns="http://www.w3.org/2000/svg"
 width="3297.000000pt" height="3296.000000pt" viewBox="0 0 3297.000000 3296.000000"
 preserveAspectRatio="xMidYMid meet">

<g transform="translate(0.000000,3296.000000) scale(0.100000,-0.100000)"
fill="#000000" stroke="none">
<path d="M15125 32905 c-749 -76 -1113 -125 -1630 -220 -1477 -271 -2816 -721
-4272 -1435 -1482 -727 -2724 -1564 -3903 -2628 -396 -358 -960 -939 -1335
-1377 -1261 -1471 -2272 -3216 -3013 -5205 -412 -1105 -701 -2327 -846 -3580
-90 -775 -119 -1256 -120 -1985 0 -1083 94 -2075 290 -3065 797 -4011 2764
-7282 5889 -9793 2795 -2246 6029 -3445 9733 -3608 305 -13 1330 -7 1577 10
1146 78 2007 210 3015 462 2969 740 5543 2222 7765 4470 2828 2861 4378 6392
4659 10609 32 472 39 720 33 1224 -5 485 -15 691 -52 1071 -69 711 -199 1467
-385 2230 -592 2433 -1552 4532 -2900 6340 -1578 2116 -3718 3821 -6340 5050
-1275 598 -2748 1040 -4230 1270 -469 72 -793 111 -1476 175 l-430 40 -755 -1
-754 -1 -520 -53z m1975 -1255 c2198 -96 4263 -631 6195 -1605 2592 -1308
4762 -3332 6247 -5830 1104 -1857 1795 -3919 2032 -6070 100 -901 117 -1879
51 -2785 -171 -2314 -862 -4537 -2033 -6540 -940 -1607 -2187 -3049 -3647
-4215 -3122 -2494 -7050 -3644 -11035 -3229 -2146 223 -4197 891 -6065 1977
-1445 839 -2788 1958 -3881 3233 -1999 2332 -3232 5176 -3568 8229 -100 905
-118 1898 -50 2800 169 2266 832 4433 1957 6395 882 1539 2035 2920 3407 4081
1287 1088 2817 1989 4400 2589 1549 587 3138 907 4835 973 197 8 950 6 1155
-3z"/>
<path d="M15935 30063 c-2590 -66 -5110 -883 -7240 -2347 -1725 -1186 -3138
-2756 -4160 -4621 -122 -223 -373 -731 -479 -970 -618 -1397 -998 -2881 -1125
-4405 -36 -424 -45 -639 -45 -1070 0 -1137 141 -2247 429 -3375 512 -2003
1385 -3733 2639 -5230 329 -392 897 -978 1271 -1310 1516 -1345 3155 -2317
4885 -2895 1905 -638 3910 -810 6035 -519 580 79 1166 193 1690 329 2917 754
5345 2410 7235 4935 798 1067 1416 2189 1860 3375 723 1934 964 4048 715 6290
-180 1617 -674 3200 -1471 4714 -229 435 -310 566 -456 741 -209 250 -425 367
-683 367 -294 1 -603 -125 -788 -322 -164 -174 -240 -370 -239 -625 0 -259 33
-354 335 -953 349 -693 512 -1057 702 -1567 411 -1104 628 -2105 717 -3300 20
-264 16 -1094 -5 -1385 -42 -555 -106 -1023 -217 -1565 -549 -2680 -1899
-4901 -4015 -6604 -1895 -1526 -3951 -2364 -6240 -2546 -1413 -111 -3026 64
-4395 479 -612 185 -1122 388 -1700 678 -1006 503 -1840 1097 -2697 1919 -874
839 -1612 1774 -2171 2749 -1114 1947 -1587 4133 -1417 6555 79 1116 321 2170
741 3228 513 1290 1210 2421 2139 3467 167 187 667 689 860 861 669 598 1340
1076 2125 1514 214 119 715 366 955 471 2230 970 4723 1213 7075 689 544 -122
1110 -290 1645 -490 222 -83 265 -104 327 -163 69 -64 93 -118 143 -317 24
-94 60 -216 80 -271 145 -386 406 -709 740 -914 295 -182 666 -280 1049 -280
699 1 1329 407 1651 1063 257 523 259 1100 6 1608 -205 411 -505 717 -884 899
-212 103 -392 151 -639 170 -274 22 -541 -16 -878 -125 -162 -52 -217 -60
-300 -45 -35 6 -179 58 -320 116 -293 118 -346 138 -630 239 -1529 541 -3191
801 -4855 758z"/>
<path d="M11838 21289 c-44 -12 -87 -42 -113 -79 -13 -19 -76 -163 -140 -320
-210 -514 -382 -931 -790 -1920 -2087 -5054 -2655 -6440 -2655 -6478 0 -25 6
-45 17 -53 22 -19 1498 -26 1566 -8 28 7 57 26 87 58 40 42 59 81 184 386 416
1017 2185 5305 2313 5608 71 169 94 205 121 188 12 -7 319 -750 1738 -4196
437 -1061 807 -1948 822 -1970 15 -22 46 -49 69 -61 41 -21 48 -21 816 -20
867 1 814 -4 804 71 -4 23 -482 1195 -1063 2606 -1595 3873 -2083 5056 -2303
5593 -122 300 -212 503 -229 525 -16 20 -44 45 -63 56 -33 19 -53 20 -594 21
-309 0 -573 -3 -587 -7z"/>
<path d="M17135 21288 c-40 -14 -53 -26 -71 -60 -13 -24 -16 -165 -20 -947 -5
-834 -4 -922 11 -950 10 -20 26 -33 43 -37 15 -2 1121 -6 2457 -7 2261 -3
2436 -4 2515 -20 296 -61 465 -163 625 -377 167 -225 260 -459 287 -718 39
-390 -141 -909 -395 -1138 -189 -170 -421 -258 -747 -284 -153 -12 -2312 1
-3370 21 -761 14 -1312 4 -1372 -25 -75 -36 -71 68 -59 -1497 6 -767 11 -1695
11 -2064 0 -654 1 -671 20 -703 38 -61 23 -60 722 -58 629 1 637 1 665 22 59
44 56 -16 57 1150 1 1068 1 1073 22 1101 11 15 36 36 55 45 32 17 135 18 1734
18 1086 0 1743 4 1820 11 264 22 512 92 760 214 454 222 798 568 1084 1091
396 723 537 1570 420 2514 -109 881 -414 1554 -944 2086 -337 337 -680 523
-1110 599 -81 15 -354 17 -2640 20 -1829 3 -2558 1 -2580 -7z"/>
</g>
</svg>
